<svg xmlns="http://www.w3.org/2000/svg" version="1.1" xmlns:xlink="http://www.w3.org/1999/xlink" xmlns:svgjs="http://svgjs.dev/svgjs" width="1000" height="1000" viewBox="0 0 1000 1000"><rect width="1000" height="1000" fill="#ffffff"></rect><g transform="matrix(0.7,0,0,0.7,150.0000000000001,106.25)"><svg viewBox="0 0 320 360" data-background-color="#ffffff" preserveAspectRatio="xMidYMid meet" height="1125" width="1000" xmlns="http://www.w3.org/2000/svg" xmlns:xlink="http://www.w3.org/1999/xlink"><g id="tight-bounds" transform="matrix(1,0,0,1,0,0)"><svg viewBox="0 0 320 360" height="360" width="320"><g><svg></svg></g><g><svg viewBox="0 0 320 360" height="360" width="320"><g><path xmlns="http://www.w3.org/2000/svg" d="M20.961 227.22l3.726 4.658-1.863-6.056c-0.466-2.795-3.726 0.466-1.863 1.398M25.153 224.425c1.397 2.329 2.795 4.658 2.795 6.987 0 3.261 2.795 4.658 5.123 5.589-3.261-3.726-5.124-13.974-7.918-12.576M204.017 26.929c7.918 0 15.371-0.932 23.756 0.931 20.495 5.124 37.729 15.371 49.374 29.811l32.606 52.169c1.397 13.042 4.192 27.482 3.726 43.319 3.261 0 2.795-4.658 6.521-5.59-3.726 9.316-5.59 20.961-6.521 34.469-2.329-7.453 0-18.632 0.466-24.687-3.261 5.124-5.124 1.397-5.124-0.932 0.466-3.726-1.397-3.261-2.795-4.658-5.124-4.658-8.384-9.782-12.11-17.7 2.329-6.055 2.795-14.905-4.658-19.563-2.329-1.397-5.124-3.726-6.521-7.453-1.863-5.124-5.124-11.179-4.193-19.097 0.466-2.329-6.987 5.124-11.179 1.863-18.166-12.576-36.332-27.016-58.224-39.127-11.645 0-20.029-4.192-24.221-9.316-3.726-4.658-0.932-10.713 4.658-11.179 3.261 0 6.987-0.932 9.782 0.932 0.466-1.863 2.329-4.192 4.657-4.192M157.904 16.215l0.932 0.466c4.658 0.932 6.987 7.453 12.11 5.124 0 3.261 0.466 6.521-0.466 8.85-1.397 3.726-5.59 3.726-8.85 3.726-31.208-1.863-49.374 11.179-68.471 22.358-5.124 3.261-10.713 5.59-14.906 9.782-20.029 18.632-41.921 35.866-47.045 70.335l-4.192 38.195c-0.466 4.192-5.124 8.384-4.192 13.508l3.26 22.824c-3.261-3.261-5.124 0.932-4.192 2.795 0.466 1.397 2.329 6.055 5.124 1.863 3.726 6.987 7.453 20.495 12.576 26.55 15.837 18.632 36.332 35.4 53.101 52.169 4.192-0.932 7.453-0.932 8.384-3.727 1.397 2.795-1.397 5.59-3.726 6.056 7.453 4.658 15.837 8.85 27.016 9.781 14.44 0.932 27.948 3.261 40.524 6.522 6.521-1.863 13.042-2.795 20.029-3.261 2.329 0 3.726-3.726 6.521-4.658l0.466-4.658c2.795 4.192 2.329-1.397 0.466-4.192 3.261 2.795 4.192 5.124 5.589 6.987 0-1.397 3.726-6.521 3.727-0.466l0.931-6.055c1.397-0.932 1.863 5.124 3.261 0.931 1.397-4.192 4.192-0.932 6.987-2.329-0.932 1.863-0.466 5.59 2.794 3.261l3.727-3.261c2.329 5.59 6.055 3.261 7.918 2.329 20.495-13.042 40.99-28.413 60.553-43.784l-0.466 6.055 2.329-7.453c2.329 2.329 4.192 0.466 5.124-0.931 2.795-4.658 6.521-9.316 12.577-13.508-7.453 20.029-16.303 35.866-27.482 48.908l-4.658 5.59c0 3.261-0.932 7.453-4.658 7.918-1.863 0.466-5.59-0.932-8.384 1.863-1.397 1.863 3.261 5.59-0.466 2.795-3.261-2.329-6.521 0-10.248 0.932-2.795 0.932 1.863 3.726 2.795 5.589 0.932 1.863 1.863 3.726 1.398 6.056l-5.124-5.59c-6.055 3.261-9.782 9.316-14.906 13.974-2.329 1.863-1.397 5.124-1.397 7.918-3.261 0-6.987-0.932-8.85 0.932-1.397 1.863-0.932 4.658-0.932 7.453-4.658-0.466-5.124-7.453-9.315-6.056-4.192 0.932-8.85 1.397-12.577 3.727 2.795 5.59-4.658 2.329-3.726 3.26-6.987-4.192-13.042-7.453-20.495-4.658-15.837-5.124-35.4-2.795-49.84-0.931 0-2.329 0.466-4.658-0.466-5.124-0.932 2.329-3.726 1.397-3.26 1.397-8.85-6.055-17.7-9.782-27.016-14.905-8.384 0.932-16.303-3.261-18.632-5.59-6.521-6.055-13.974-2.795-20.029-4.192-13.042-3.261-17.7-16.769-19.098-26.084-0.932-4.658-4.658-6.521-6.055-6.056-6.055-19.563-15.371-37.263-22.824-55.429-1.863-4.658-1.397-9.316-1.397-14.44 2.329 0.932 4.658 0.466 4.192-2.794-2.329-15.371-7.918-27.016-13.974-38.195 3.261-15.837 3.726-34.469 11.179-48.443 6.521-12.576 18.632-19.098 27.016-29.811 2.795-3.726 2.795-8.85 5.59-12.11 9.316-9.316 18.632-19.098 28.879-27.482 4.658-3.726 10.247 0 17.234-1.397 2.329-8.384 11.645-15.837 20.495-13.508 3.726 0.932 11.179-8.85 13.508-9.782 3.726-1.397 1.863 3.726 1.863 6.987 8.85-6.987 20.961-10.713 32.14-14.906" fill="#8abe53" fill-rule="nonzero" stroke="none" stroke-width="1" stroke-linecap="butt" stroke-linejoin="miter" stroke-miterlimit="10" stroke-dasharray="" stroke-dashoffset="0" font-family="none" font-weight="none" font-size="none" text-anchor="none" style="mix-blend-mode: normal" data-fill-palette-color="tertiary"></path></g><g transform="matrix(1,0,0,1,64,114.43295111674593)"><svg viewBox="0 0 192 131.13409776650815" height="131.13409776650815" width="192"><g><svg viewBox="0 0 192 131.13409776650815" height="131.13409776650815" width="192"><g><svg viewBox="0 0 192 131.13409776650815" height="131.13409776650815" width="192"><g transform="matrix(1,0,0,1,0,77.92978669602611)"><svg viewBox="0 0 192 53.204311070482035" height="53.204311070482035" width="192"><g><svg viewBox="0 0 192 53.204311070482035" height="53.204311070482035" width="192"><g><svg viewBox="0 0 192 30.162473593239863" height="30.162473593239863" width="192"><g transform="matrix(1,0,0,1,0,0)"><svg width="192" viewBox="6.5 -36.849998474121094 260.32000732421875 40.89999771118164" height="30.162473593239863" data-palette-color="#8abe53"><path d="M39.1-26.95L39.1-26.95Q39.1-24.2 37.73-21.7 36.35-19.2 34.02-17.32 31.7-15.45 28.58-14.35 25.45-13.25 21.95-13.25L21.95-13.25Q20.7-13.25 19.98-13.58 19.25-13.9 18.35-14.85L18.35-14.85Q15.85-9.4 14.28-4.83 12.7-0.25 11.8 4.05L11.8 4.05Q9.9 3.6 8.7 2.48 7.5 1.35 6.5-0.35L6.5-0.35Q7-1.3 7.7-2.85 8.4-4.4 9.4-6.68 10.4-8.95 11.73-12.13 13.05-15.3 14.85-19.55L14.85-19.55Q15.65-21.5 16.25-22.95 16.85-24.4 17.3-25.68 17.75-26.95 18.13-28.2 18.5-29.45 18.9-30.95L18.9-30.95Q16.55-30.2 14.58-29.2 12.6-28.2 11.3-27.1L11.3-27.1Q10.85-27.4 10.38-28 9.9-28.6 9.5-29.33 9.1-30.05 8.8-30.8 8.5-31.55 8.45-32.15L8.45-32.15Q9.9-33.15 12.05-34 14.2-34.85 16.65-35.48 19.1-36.1 21.73-36.45 24.35-36.8 26.75-36.8L26.75-36.8Q29.6-36.8 31.9-36.08 34.2-35.35 35.8-34.05 37.4-32.75 38.25-30.95 39.1-29.15 39.1-26.95ZM30.2-32.95L30.2-32.95Q28.3-32.95 26.3-32.65L26.3-32.65 26.9-31.75Q26.4-31.1 25.65-29.8 24.9-28.5 24-26.68 23.1-24.85 22.03-22.6 20.95-20.35 19.75-17.85L19.75-17.85Q23.65-17.85 26.85-18.57 30.05-19.3 32.33-20.58 34.6-21.85 35.88-23.55 37.15-25.25 37.15-27.2L37.15-27.2Q37.15-29.8 35.4-31.38 33.65-32.95 30.2-32.95ZM54-20.7L54-20.7Q53.8-17.6 52.9-15.38 52-13.15 50.32-11.48 48.65-9.8 46.25-8.45 43.85-7.1 40.65-5.85L40.65-5.85Q40.65-5.55 40.62-5.23 40.6-4.9 40.6-4.55L40.6-4.55Q40.6-3.9 40.7-3.2 40.8-2.5 41.05-1.9 41.3-1.3 41.75-0.93 42.2-0.55 42.9-0.55L42.9-0.55Q44.25-0.55 45.55-1.15 46.85-1.75 48.02-2.63 49.2-3.5 50.22-4.53 51.25-5.55 52.05-6.4L52.05-6.4Q52.55-5.95 52.9-5.55L52.9-5.55Q50.65-2.55 47.97-0.58 45.3 1.4 42.9 1.95L42.9 1.95Q39.45 1.55 37.52-0.58 35.6-2.7 35.6-5.7L35.6-5.7Q35.6-7.75 36.17-9.88 36.75-12 37.77-13.98 38.8-15.95 40.17-17.7 41.55-19.45 43.12-20.75 44.7-22.05 46.37-22.8 48.05-23.55 49.7-23.55L49.7-23.55Q52-23.25 54-20.7ZM50.55-19.05L50.55-19.05Q49.2-18.85 47.75-17.95 46.3-17.05 45.02-15.55 43.75-14.05 42.7-12.05 41.65-10.05 41.05-7.75L41.05-7.75Q45.05-9.75 47.7-12.68 50.35-15.6 50.55-19.05ZM61.75-19.15L58.9-19.15Q58.65-19.45 58.45-20.43 58.25-21.4 58.25-22.1L58.25-22.1Q59.55-22 60.75-21.93 61.95-21.85 62.95-21.8L62.95-21.8Q63.7-23.3 64.57-24.78 65.45-26.25 66.27-27.48 67.09-28.7 67.82-29.55 68.55-30.4 68.95-30.65L68.95-30.65Q69.45-30.65 70.22-30.48 71-30.3 71.8-30.03 72.59-29.75 73.25-29.45 73.9-29.15 74.15-28.85L74.15-28.85Q72.65-26.95 71.57-25.33 70.5-23.7 69.25-21.6L69.25-21.6Q70.25-21.6 71.27-21.65 72.3-21.7 73.34-21.8L73.34-21.8Q73.59-21.55 73.75-21.18 73.9-20.8 73.9-20.4L73.9-20.4Q71.45-19.5 67.95-19.4L67.95-19.4Q66.7-17 65.72-14.63 64.75-12.25 64.07-10.05 63.4-7.85 63.02-5.9 62.65-3.95 62.65-2.4L62.65-2.4Q62.65-0.2 64.3 0.05L64.3 0.05Q65.8-0.15 67.15-0.7 68.5-1.25 69.55-2.1L69.55-2.1Q69.84-1.65 69.9-1.35L69.9-1.35Q69.59-0.9 68.87-0.3 68.15 0.3 67.3 0.88 66.45 1.45 65.65 1.85 64.84 2.25 64.45 2.3L64.45 2.3Q63.2 2.25 61.95 1.75 60.7 1.25 59.67 0.5 58.65-0.25 58-1.18 57.35-2.1 57.35-3L57.35-3Q57.35-4.2 57.67-6.03 58-7.85 58.6-10 59.2-12.15 60-14.5 60.8-16.85 61.75-19.15L61.75-19.15ZM91.44-20.7L91.44-20.7Q91.24-17.6 90.34-15.38 89.44-13.15 87.77-11.48 86.09-9.8 83.69-8.45 81.29-7.1 78.09-5.85L78.09-5.85Q78.09-5.55 78.07-5.23 78.04-4.9 78.04-4.55L78.04-4.55Q78.04-3.9 78.14-3.2 78.24-2.5 78.49-1.9 78.74-1.3 79.19-0.93 79.64-0.55 80.34-0.55L80.34-0.55Q81.69-0.55 82.99-1.15 84.29-1.75 85.47-2.63 86.64-3.5 87.67-4.53 88.69-5.55 89.49-6.4L89.49-6.4Q89.99-5.95 90.34-5.55L90.34-5.55Q88.09-2.55 85.42-0.58 82.74 1.4 80.34 1.95L80.34 1.95Q76.89 1.55 74.97-0.58 73.04-2.7 73.04-5.7L73.04-5.7Q73.04-7.75 73.62-9.88 74.19-12 75.22-13.98 76.24-15.95 77.62-17.7 78.99-19.45 80.57-20.75 82.14-22.05 83.82-22.8 85.49-23.55 87.14-23.55L87.14-23.55Q89.44-23.25 91.44-20.7ZM87.99-19.05L87.99-19.05Q86.64-18.85 85.19-17.95 83.74-17.05 82.47-15.55 81.19-14.05 80.14-12.05 79.09-10.05 78.49-7.75L78.49-7.75Q82.49-9.75 85.14-12.68 87.79-15.6 87.99-19.05ZM92.54-1L92.54-1Q92.79-2.45 93.42-4.83 94.04-7.2 94.89-9.88 95.74-12.55 96.69-15.25 97.64-17.95 98.54-20.1L98.54-20.1Q99.19-21.65 99.69-22.53 100.19-23.4 100.79-24L100.79-24Q101.49-23.9 102.24-23.65 102.99-23.4 103.69-23.05 104.39-22.7 104.94-22.33 105.49-21.95 105.79-21.6L105.79-21.6Q104.44-20 103.42-17.95 102.39-15.9 101.34-12.7L101.34-12.7Q104.04-15.1 106.12-17.3 108.19-19.5 109.99-22.2L109.99-22.2Q110.29-22.45 111.04-22.45L111.04-22.45Q111.74-22.45 112.39-22.23 113.04-22 113.29-21.6L113.29-21.6Q112.39-19.2 112.39-16.85L112.39-16.85Q112.39-14.65 113.04-13.55L113.04-13.55Q112.99-13.25 112.37-12.4 111.74-11.55 110.99-10.8L110.99-10.8Q109.64-11.5 108.59-12.73 107.54-13.95 107.04-15.4L107.04-15.4Q104.69-13.75 103.04-12.18 101.39-10.6 100.22-8.68 99.04-6.75 98.22-4.25 97.39-1.75 96.64 1.7L96.64 1.7Q96.19 1.65 95.57 1.38 94.94 1.1 94.32 0.7 93.69 0.3 93.19-0.15 92.69-0.6 92.54-1ZM146.64-21.3L146.64-21.3Q148.29-21.3 149.21-20.4 150.14-19.5 150.14-17.9L150.14-17.9Q150.14-17.5 150.06-17.07 149.99-16.65 149.89-16.35L149.89-16.35Q149.24-16.45 148.44-16.53 147.64-16.6 146.54-16.6L146.54-16.6Q144.39-16.6 142.19-16.23 139.99-15.85 137.99-15.6L137.99-15.6Q136.84-12.95 135.89-10.48 134.94-8 134.26-5.95 133.59-3.9 133.21-2.4 132.84-0.9 132.79-0.15L132.79-0.15Q136.84-1 140.96-1.6 145.09-2.2 149.64-2.5L149.64-2.5Q150.19-1.65 150.56-0.65 150.94 0.35 150.94 1.5L150.94 1.5Q150.94 1.8 150.94 2.15 150.94 2.5 150.84 2.85L150.84 2.85Q149.44 2.8 147.89 2.78 146.34 2.75 143.84 2.75L143.84 2.75Q142.19 2.75 140.71 2.83 139.24 2.9 137.74 3.05 136.24 3.2 134.56 3.45 132.89 3.7 130.79 4.05L130.79 4.05Q128.49 3.15 126.34-0.35L126.34-0.35Q127.19-2.15 128.71-5.83 130.24-9.5 132.59-15.65L132.59-15.65Q130.34-16.35 129.64-18.15L129.64-18.15Q129.89-18.4 131.09-18.78 132.29-19.15 134.04-19.55L134.04-19.55Q134.79-21.5 135.31-22.95 135.84-24.4 136.24-25.68 136.64-26.95 136.96-28.18 137.29-29.4 137.59-30.85L137.59-30.85Q135.84-30.95 134.84-31.83 133.84-32.7 133.84-34.1L133.84-34.1Q133.84-34.5 133.96-35.05 134.09-35.6 134.24-36L134.24-36Q135.24-35.85 136.16-35.8 137.09-35.75 138.59-35.75L138.59-35.75Q141.74-35.75 144.49-35.93 147.24-36.1 149.46-36.3 151.69-36.5 153.29-36.68 154.89-36.85 155.74-36.85L155.74-36.85Q156.89-36.85 157.79-35.65 158.69-34.45 159.14-32.25L159.14-32.25Q157.59-32.4 156.61-32.45 155.64-32.5 154.89-32.5L154.89-32.5Q152.14-32.5 149.86-32.23 147.59-31.95 145.49-31.65L145.49-31.65Q145.19-31.2 144.81-30.5 144.44-29.8 143.84-28.55 143.24-27.3 142.36-25.4 141.49-23.5 140.24-20.65L140.24-20.65Q142.14-20.95 143.81-21.13 145.49-21.3 146.64-21.3ZM157.78-17.7L157.78-17.7Q157.78-18.6 157.91-19.4 158.03-20.2 158.43-20.78 158.83-21.35 159.53-21.68 160.23-22 161.38-22L161.38-22Q162.08-22 162.96-21.85 163.83-21.7 164.23-21.3L164.23-21.3Q164.03-20.45 163.91-19.8 163.78-19.15 163.71-18.38 163.63-17.6 163.58-16.53 163.53-15.45 163.48-13.75L163.48-13.75Q163.38-10.35 163.16-7.68 162.93-5 162.13-2.35L162.13-2.35Q162.13-2.15 162.28-2.15L162.28-2.15Q163.03-2.7 163.98-3.75 164.93-4.8 165.98-6.13 167.03-7.45 168.08-8.95 169.13-10.45 170.03-11.9L170.03-11.9Q171.23-14 172.68-17.15 174.13-20.3 175.08-23.9L175.08-23.9Q175.38-23.9 175.86-23.78 176.33-23.65 176.81-23.48 177.28-23.3 177.66-23.1 178.03-22.9 178.18-22.75L178.18-22.75Q178.08-20.6 177.16-18.35 176.23-16.1 174.93-14 173.63-11.9 172.18-10.05 170.73-8.2 169.53-6.85L169.53-6.85Q167.13-4.05 164.71-1.85 162.28 0.35 158.93 2.4L158.93 2.4Q157.63 1.9 156.88 1.07 156.13 0.25 156.13-0.65L156.13-0.65Q156.13-1.25 156.41-2.02 156.68-2.8 157.03-4.03 157.38-5.25 157.66-7.1 157.93-8.95 157.93-11.8L157.93-11.8Q157.93-13.45 157.86-15.13 157.78-16.8 157.78-17.7ZM194.68-20.2L194.68-20.2Q195.18-20.2 195.86-20.03 196.53-19.85 197.08-19.58 197.63-19.3 198.01-19 198.38-18.7 198.38-18.45L198.38-18.45Q197.38-16.35 196.53-14.23 195.68-12.1 195.08-10.15 194.48-8.2 194.16-6.5 193.83-4.8 193.83-3.55L193.83-3.55Q193.83-2.15 194.13-1.23 194.43-0.3 195.13 0.1L195.13 0.1Q194.53 0.5 193.58 0.75 192.63 1 191.88 1L191.88 1Q189.18 1 189.18-2.7L189.18-2.7Q189.18-5.55 191.08-10.5L191.08-10.5Q190.08-8.2 188.78-6.18 187.48-4.15 186.13-2.6 184.78-1.05 183.41-0.08 182.03 0.9 180.88 1.1L180.88 1.1Q179.03 1 177.88-0.68 176.73-2.35 176.73-4.95L176.73-4.95Q176.73-7.75 177.93-10.85 179.13-13.95 181.01-16.6 182.88-19.25 185.08-21.03 187.28-22.8 189.33-22.9L189.33-22.9Q189.83-22.75 190.46-22.3 191.08-21.85 191.66-21.25 192.23-20.65 192.63-20.03 193.03-19.4 193.08-18.95L193.08-18.95Q191.08-18.65 188.96-17 186.83-15.35 185.11-13.03 183.38-10.7 182.28-8.05 181.18-5.4 181.18-3.1L181.18-3.1Q181.18-2.15 181.88-1.9L181.88-1.9Q183.33-2.2 185.23-4.38 187.13-6.55 189.83-11.1L189.83-11.1Q190.33-12 190.96-13.1 191.58-14.2 192.23-15.4 192.88-16.6 193.51-17.82 194.13-19.05 194.68-20.2ZM209.03-24.25L209.03-24.25Q210.33-23.85 211.48-22.48 212.63-21.1 213.18-19.45L213.18-19.45Q212.63-18.1 211.48-16.2 210.33-14.3 209.18-12.33 208.03-10.35 207.1-8.58 206.18-6.8 206.03-5.65L206.03-5.65Q206.83-6.5 207.8-7.63 208.78-8.75 209.7-9.88 210.63-11 211.43-11.93 212.23-12.85 212.68-13.3L212.68-13.3Q213.63-14.3 214.93-15.63 216.23-16.95 217.65-18.13 219.08-19.3 220.53-20.13 221.98-20.95 223.18-20.95L223.18-20.95Q224.48-20.95 225.35-20.08 226.23-19.2 226.73-18.25L226.73-18.25Q226.73-18.15 226.35-17.98 225.98-17.8 225.28-17L225.28-17Q224.58-16.1 223.7-14.53 222.83-12.95 222-11.13 221.18-9.3 220.63-7.4 220.08-5.5 220.08-3.95L220.08-3.95Q220.08-2.7 220.4-2.35 220.73-2 221.33-2L221.33-2Q221.88-2 222.48-2.25 223.08-2.5 223.43-2.5L223.43-2.5Q223.63-2.4 223.75-2.08 223.88-1.75 223.88-1.5L223.88-1.5Q223.48-1.15 222.93-0.8 222.38-0.45 221.78-0.15 221.18 0.15 220.6 0.35 220.03 0.55 219.58 0.55L219.58 0.55Q218.13 0.55 217.2 0.13 216.28-0.3 215.75-1 215.23-1.7 215.03-2.68 214.83-3.65 214.83-4.75L214.83-4.75Q214.83-5.35 214.93-6.1 215.03-6.85 215.33-7.88 215.63-8.9 216.18-10.33 216.73-11.75 217.58-13.75L217.58-13.75Q217.48-13.75 216.23-13.05 214.98-12.35 213.53-10.9L213.53-10.9Q211.18-8.65 209.3-6.45 207.43-4.25 205.48-1.55L205.48-1.55Q204.38 0 203.55 1.07 202.73 2.15 202.13 2.5L202.13 2.5Q201.08 1.9 200.58 0.83 200.08-0.25 199.83-1.4L199.83-1.4Q199.83-2.35 200.1-3.8 200.38-5.25 200.85-7.03 201.33-8.8 202.03-10.75 202.73-12.7 203.58-14.65L203.58-14.65Q205.48-19.05 207.05-21.55 208.63-24.05 209.03-24.25ZM228.23-8.8L228.23-8.8Q228.23-11.65 229.4-14.33 230.58-17 232.5-19.07 234.43-21.15 236.9-22.43 239.38-23.7 242.03-23.7L242.03-23.7Q244.63-23.7 246.03-22.4 247.43-21.1 247.43-18.7L247.43-18.7Q247.43-17.55 247.1-16.48 246.78-15.4 246.25-14.55 245.73-13.7 245.03-13.18 244.33-12.65 243.63-12.65L243.63-12.65Q243.03-12.65 242.4-13.03 241.78-13.4 241.38-14L241.38-14Q244.73-17.05 244.73-19.55L244.73-19.55Q244.73-21 243.58-21L243.58-21Q242.58-21 241.08-20.05 239.58-19.1 238.18-17.55L238.18-17.55Q236.03-15.15 234.9-12.23 233.78-9.3 233.78-6.1L233.78-6.1Q233.78-2.05 235.58-1.25L235.58-1.25Q236.33-1.35 237.33-1.7 238.33-2.05 239.48-2.63 240.63-3.2 241.85-3.95 243.08-4.7 244.23-5.55L244.23-5.55Q244.43-5.4 244.58-5.1 244.73-4.8 244.73-4.55L244.73-4.55Q243.88-3.5 242.78-2.5 241.68-1.5 240.48-0.68 239.28 0.15 238.15 0.73 237.03 1.3 236.18 1.45L236.18 1.45Q234.53 1.3 233.08 0.43 231.63-0.45 230.55-1.85 229.48-3.25 228.85-5.05 228.23-6.85 228.23-8.8ZM266.82-20.7L266.82-20.7Q266.62-17.6 265.72-15.38 264.82-13.15 263.15-11.48 261.47-9.8 259.07-8.45 256.67-7.1 253.47-5.85L253.47-5.85Q253.47-5.55 253.45-5.23 253.42-4.9 253.42-4.55L253.42-4.55Q253.42-3.9 253.52-3.2 253.62-2.5 253.87-1.9 254.12-1.3 254.57-0.93 255.02-0.55 255.72-0.55L255.72-0.55Q257.07-0.55 258.37-1.15 259.67-1.75 260.85-2.63 262.02-3.5 263.05-4.53 264.07-5.55 264.87-6.4L264.87-6.4Q265.37-5.95 265.72-5.55L265.72-5.55Q263.47-2.55 260.8-0.58 258.12 1.4 255.72 1.95L255.72 1.95Q252.27 1.55 250.35-0.58 248.42-2.7 248.42-5.7L248.42-5.7Q248.42-7.75 249-9.88 249.57-12 250.6-13.98 251.62-15.95 253-17.7 254.37-19.45 255.95-20.75 257.52-22.05 259.2-22.8 260.87-23.55 262.52-23.55L262.52-23.55Q264.82-23.25 266.82-20.7ZM263.37-19.05L263.37-19.05Q262.02-18.85 260.57-17.95 259.12-17.05 257.85-15.55 256.57-14.05 255.52-12.05 254.47-10.05 253.87-7.75L253.87-7.75Q257.87-9.75 260.52-12.68 263.17-15.6 263.37-19.05Z" opacity="1" transform="matrix(1,0,0,1,0,0)" fill="#8abe53" class="undefined-text-0" data-fill-palette-color="primary" id="text-0"></path></svg></g></svg></g><g transform="matrix(1,0,0,1,0,34.5639023898598)"><svg viewBox="0 0 192 18.640408680622237" height="18.640408680622237" width="192"><g transform="matrix(1,0,0,1,0,0)"><svg width="192" viewBox="4.5 -35.400001525878906 371.8399963378906 36.10000228881836" height="18.640408680622237" data-palette-color="#096a2e"><path d="M4.5 0L4.5-34.65 7.9-34.65 7.9 0 4.5 0ZM19.88 0L19.88-24.95Q21.33-25.35 23.78-25.85 26.23-26.35 29.78-26.35L29.78-26.35Q32.73-26.35 34.7-25.5 36.68-24.65 37.85-23.08 39.03-21.5 39.53-19.3 40.03-17.1 40.03-14.45L40.03-14.45 40.03 0 36.78 0 36.78-13.4Q36.78-16.15 36.4-18.05 36.03-19.95 35.15-21.15 34.28-22.35 32.85-22.88 31.43-23.4 29.28-23.4L29.28-23.4Q26.98-23.4 25.3-23.15 23.63-22.9 23.13-22.7L23.13-22.7 23.13 0 19.88 0ZM51.5 0L51.5-24.95Q52.95-25.35 55.4-25.85 57.85-26.35 61.4-26.35L61.4-26.35Q64.35-26.35 66.33-25.5 68.3-24.65 69.48-23.08 70.65-21.5 71.15-19.3 71.65-17.1 71.65-14.45L71.65-14.45 71.65 0 68.4 0 68.4-13.4Q68.4-16.15 68.03-18.05 67.65-19.95 66.78-21.15 65.9-22.35 64.48-22.88 63.05-23.4 60.9-23.4L60.9-23.4Q58.6-23.4 56.93-23.15 55.25-22.9 54.75-22.7L54.75-22.7 54.75 0 51.5 0ZM105.18-12.9L105.18-12.9Q105.18-9.85 104.3-7.35 103.43-4.85 101.85-3.1 100.28-1.35 98.13-0.38 95.98 0.6 93.38 0.6L93.38 0.6Q90.78 0.6 88.63-0.38 86.48-1.35 84.9-3.1 83.33-4.85 82.45-7.35 81.58-9.85 81.58-12.9L81.58-12.9Q81.58-15.95 82.45-18.45 83.33-20.95 84.9-22.73 86.48-24.5 88.63-25.48 90.78-26.45 93.38-26.45L93.38-26.45Q95.98-26.45 98.13-25.48 100.28-24.5 101.85-22.73 103.43-20.95 104.3-18.45 105.18-15.95 105.18-12.9ZM101.73-12.9L101.73-12.9Q101.73-17.75 99.48-20.63 97.23-23.5 93.38-23.5L93.38-23.5Q89.53-23.5 87.28-20.63 85.03-17.75 85.03-12.9L85.03-12.9Q85.03-8.05 87.28-5.2 89.53-2.35 93.38-2.35L93.38-2.35Q97.23-2.35 99.48-5.2 101.73-8.05 101.73-12.9ZM123.2-3.5L123.2-3.5Q124.25-5.65 125.35-8.43 126.45-11.2 127.48-14.18 128.5-17.15 129.38-20.18 130.25-23.2 130.85-25.85L130.85-25.85 134.1-25.85Q133.2-22.3 132.1-18.85 131-15.4 129.78-12.1 128.55-8.8 127.23-5.75 125.9-2.7 124.65 0L124.65 0 121.55 0Q120.25-2.7 118.95-5.75 117.65-8.8 116.43-12.1 115.2-15.4 114.1-18.85 113-22.3 112.1-25.85L112.1-25.85 115.55-25.85Q116.15-23.2 117.03-20.18 117.9-17.15 118.93-14.18 119.95-11.2 121.05-8.43 122.15-5.65 123.2-3.5ZM150.73-2.35L150.73-2.35Q152.63-2.35 154.05-2.48 155.48-2.6 156.48-2.8L156.48-2.8 156.48-11.9Q155.93-12.15 154.73-12.43 153.53-12.7 151.43-12.7L151.43-12.7Q150.23-12.7 148.93-12.53 147.63-12.35 146.53-11.78 145.43-11.2 144.73-10.2 144.03-9.2 144.03-7.55L144.03-7.55Q144.03-6.1 144.5-5.1 144.98-4.1 145.85-3.5 146.73-2.9 147.95-2.63 149.18-2.35 150.73-2.35ZM150.43-26.45L150.43-26.45Q152.98-26.45 154.75-25.73 156.53-25 157.63-23.73 158.73-22.45 159.23-20.7 159.73-18.95 159.73-16.9L159.73-16.9 159.73-0.6Q159.23-0.45 158.28-0.28 157.33-0.1 156.08 0.1 154.83 0.3 153.3 0.43 151.78 0.55 150.18 0.55L150.18 0.55Q148.13 0.55 146.4 0.1 144.68-0.35 143.4-1.33 142.13-2.3 141.4-3.83 140.68-5.35 140.68-7.55L140.68-7.55Q140.68-9.65 141.48-11.15 142.28-12.65 143.73-13.63 145.18-14.6 147.18-15.05 149.18-15.5 151.53-15.5L151.53-15.5Q152.23-15.5 153-15.43 153.78-15.35 154.5-15.23 155.23-15.1 155.75-14.98 156.28-14.85 156.48-14.75L156.48-14.75 156.48-16.35Q156.48-17.7 156.28-18.98 156.08-20.25 155.4-21.28 154.73-22.3 153.5-22.93 152.28-23.55 150.28-23.55L150.28-23.55Q147.43-23.55 146.03-23.15 144.63-22.75 143.98-22.5L143.98-22.5 143.53-25.35Q144.38-25.75 146.15-26.1 147.93-26.45 150.43-26.45ZM174.26-34.05L174.26-25.85 184.56-25.85 184.56-23.1 174.26-23.1 174.26-9.35Q174.26-7.15 174.63-5.78 175.01-4.4 175.71-3.65 176.41-2.9 177.41-2.65 178.41-2.4 179.61-2.4L179.61-2.4Q181.66-2.4 182.91-2.88 184.16-3.35 184.86-3.75L184.86-3.75 185.66-1.05Q184.96-0.6 183.21-0.03 181.46 0.55 179.41 0.55L179.41 0.55Q177.01 0.55 175.38-0.08 173.76-0.7 172.78-1.98 171.81-3.25 171.41-5.15 171.01-7.05 171.01-9.65L171.01-9.65 171.01-33.45 174.26-34.05ZM192.18-12.95L192.18-12.95Q192.18-16.35 193.16-18.88 194.13-21.4 195.71-23.1 197.28-24.8 199.31-25.63 201.33-26.45 203.48-26.45L203.48-26.45Q208.23-26.45 211.06-23.35 213.88-20.25 213.88-13.8L213.88-13.8Q213.88-13.4 213.86-13 213.83-12.6 213.78-12.25L213.78-12.25 195.63-12.25Q195.78-7.5 197.98-4.95 200.18-2.4 204.98-2.4L204.98-2.4Q207.63-2.4 209.18-2.9 210.73-3.4 211.43-3.75L211.43-3.75 212.03-0.95Q211.33-0.55 209.41 0 207.48 0.55 204.88 0.55L204.88 0.55Q201.48 0.55 199.08-0.45 196.68-1.45 195.13-3.25 193.58-5.05 192.88-7.53 192.18-10 192.18-12.95ZM195.73-15L210.53-15Q210.43-19.05 208.63-21.3 206.83-23.55 203.53-23.55L203.53-23.55Q201.78-23.55 200.41-22.85 199.03-22.15 198.01-20.98 196.98-19.8 196.41-18.25 195.83-16.7 195.73-15L195.73-15ZM260.68-3.1L260.68-16.4 264.08-16.4 264.08-0.95Q263.13-0.55 260.36 0.08 257.58 0.7 253.53 0.7L253.53 0.7Q250.13 0.7 247.23-0.5 244.33-1.7 242.21-3.98 240.08-6.25 238.88-9.63 237.68-13 237.68-17.35L237.68-17.35Q237.68-21.7 238.98-25.08 240.28-28.45 242.51-30.73 244.73-33 247.68-34.2 250.63-35.4 253.98-35.4L253.98-35.4Q257.83-35.4 260.33-34.58 262.83-33.75 263.98-33L263.98-33 262.83-30.1Q261.43-31.1 259.03-31.73 256.63-32.35 253.83-32.35L253.83-32.35Q251.23-32.35 248.93-31.4 246.63-30.45 244.93-28.55 243.23-26.65 242.26-23.85 241.28-21.05 241.28-17.35L241.28-17.35Q241.28-13.9 242.08-11.13 242.88-8.35 244.51-6.38 246.13-4.4 248.53-3.35 250.93-2.3 254.08-2.3L254.08-2.3Q256.63-2.3 258.36-2.58 260.08-2.85 260.68-3.1L260.68-3.1ZM283.76-26.35L283.76-26.35Q285.36-26.35 286.78-26.1 288.21-25.85 288.76-25.6L288.76-25.6 288.11-22.8Q287.71-23 286.48-23.23 285.26-23.45 283.26-23.45L283.26-23.45Q281.16-23.45 279.88-23.15 278.61-22.85 278.21-22.65L278.21-22.65 278.21 0 274.96 0 274.96-24.65Q276.21-25.2 278.41-25.78 280.61-26.35 283.76-26.35ZM318.89-12.9L318.89-12.9Q318.89-9.85 318.01-7.35 317.14-4.85 315.56-3.1 313.99-1.35 311.84-0.38 309.69 0.6 307.09 0.6L307.09 0.6Q304.49 0.6 302.34-0.38 300.19-1.35 298.61-3.1 297.04-4.85 296.16-7.35 295.29-9.85 295.29-12.9L295.29-12.9Q295.29-15.95 296.16-18.45 297.04-20.95 298.61-22.73 300.19-24.5 302.34-25.48 304.49-26.45 307.09-26.45L307.09-26.45Q309.69-26.45 311.84-25.48 313.99-24.5 315.56-22.73 317.14-20.95 318.01-18.45 318.89-15.95 318.89-12.9ZM315.44-12.9L315.44-12.9Q315.44-17.75 313.19-20.63 310.94-23.5 307.09-23.5L307.09-23.5Q303.24-23.5 300.99-20.63 298.74-17.75 298.74-12.9L298.74-12.9Q298.74-8.05 300.99-5.2 303.24-2.35 307.09-2.35L307.09-2.35Q310.94-2.35 313.19-5.2 315.44-8.05 315.44-12.9ZM342.96-25.85L345.76-25.85Q346.21-23.35 346.94-20.53 347.66-17.7 348.54-14.78 349.41-11.85 350.39-9 351.36-6.15 352.36-3.65L352.36-3.65Q353.21-5.55 354.16-8.28 355.11-11 356.06-14.03 357.01-17.05 357.84-20.13 358.66-23.2 359.21-25.85L359.21-25.85 362.41-25.85Q360.61-18.25 358.49-11.95 356.36-5.65 353.81 0L353.81 0 350.76 0Q350.01-1.75 349.19-3.93 348.36-6.1 347.49-8.58 346.61-11.05 345.79-13.78 344.96-16.5 344.21-19.35L344.21-19.35Q343.46-16.5 342.64-13.78 341.81-11.05 340.94-8.58 340.06-6.1 339.24-3.93 338.41-1.75 337.66 0L337.66 0 334.56 0Q332.01-5.65 329.89-11.95 327.76-18.25 325.96-25.85L325.96-25.85 329.41-25.85Q329.96-23.2 330.79-20.13 331.61-17.05 332.56-14.03 333.51-11 334.49-8.3 335.46-5.6 336.31-3.7L336.31-3.7Q337.26-6.2 338.24-9.05 339.21-11.9 340.06-14.8 340.91-17.7 341.66-20.53 342.41-23.35 342.96-25.85L342.96-25.85ZM375.34-34.65L375.34-25Q375.34-22.85 375.26-20.98 375.19-19.1 375.04-17.35 374.89-15.6 374.71-13.95 374.54-12.3 374.34-10.65L374.34-10.65 372.84-10.65Q372.39-14 372.11-17.35 371.84-20.7 371.84-25L371.84-25 371.84-34.65 375.34-34.65ZM376.34-2.15L376.34-2.15Q376.34-1 375.61-0.2 374.89 0.6 373.59 0.6L373.59 0.6Q372.29 0.6 371.56-0.2 370.84-1 370.84-2.15L370.84-2.15Q370.84-3.3 371.56-4.1 372.29-4.9 373.59-4.9L373.59-4.9Q374.89-4.9 375.61-4.1 376.34-3.3 376.34-2.15Z" opacity="1" transform="matrix(1,0,0,1,0,0)" fill="#096a2e" class="undefined-text-1" data-fill-palette-color="secondary" id="text-1"></path></svg></g></svg></g></svg></g></svg></g><g transform="matrix(1,0,0,1,42.52405321393629,0)"><svg viewBox="0 0 106.95189357212742 73.52835789940617" height="73.52835789940617" width="106.95189357212742"><g><svg xmlns="http://www.w3.org/2000/svg" xmlns:xlink="http://www.w3.org/1999/xlink" version="1.1" x="0" y="0" viewBox="0 0 100 68.7490005493164" enable-background="new 0 0 100 68.749" xml:space="preserve" width="106.95189357212742" height="73.52835789940617" class="icon-icon-0" data-fill-palette-color="accent" id="icon-0"><path d="M44.495 59.533c-6.119 0-11.649-3.603-14.081-5.447-7.605 1.851-13.209 0.727-16.644-3.207-2.474-2.834-3.11-6.465-3.224-8.924C6.009 40.317 0 35.572 0 28.662c0-9.354 5.903-14.938 15.792-14.938 0.812 0 1.566 0.039 2.236 0.094 1.378-4.045 4.195-7.338 8.408-9.815C30.954 1.346 35.312 0 39.391 0c6.576 0 10.828 3.42 13.012 5.838 2.42-1.123 4.765-1.689 6.995-1.689 7.934 0 11.931 6.774 13.471 10.297 9.199 0.816 13.178 6.953 13.806 12.718 0.691 6.334-2.217 12.43-6.735 14.85-0.15 3.226-1.176 5.875-3.063 7.898-2.538 2.72-6.441 4.099-11.602 4.099 0 0 0 0-0.001 0-3.289 0-6.433-0.569-8.431-1.028C52.791 58.341 47.975 59.533 44.495 59.533zM31.114 47.815c0.729 0 1.443 0.267 1.999 0.767 0.051 0.045 5.647 4.969 11.382 4.969 3.429 0 6.216-1.819 8.518-5.56 0.717-1.163 2.131-1.691 3.433-1.289 0.04 0.011 4.366 1.325 8.828 1.325l0 0c2.361 0 5.533-0.38 7.229-2.198 1.13-1.211 1.614-3.11 1.438-5.646-0.102-1.477 0.892-2.806 2.336-3.127 2.741-0.608 4.904-5.102 4.453-9.245-0.305-2.788-2.003-7.466-9.958-7.476-1.325-0.002-2.492-0.876-2.865-2.147-0.021-0.071-2.504-8.058-8.508-8.058-1.851 0-3.966 0.706-6.284 2.097-0.688 0.413-1.513 0.531-2.291 0.33-0.777-0.201-1.44-0.707-1.841-1.401-0.115-0.193-3.163-5.175-9.591-5.175-2.998 0-6.336 1.069-9.923 3.179-3.656 2.15-5.642 4.843-6.247 8.474-0.134 0.809-0.597 1.528-1.277 1.987-0.68 0.459-1.521 0.619-2.321 0.441-0.009-0.002-1.666-0.355-3.83-0.355-4.211 0-9.81 0.928-9.81 8.955 0 4.766 6.14 7.938 7.612 7.94 0.862 0.001 1.686 0.375 2.252 1.025 0.567 0.65 0.827 1.515 0.712 2.369-0.004 0.03-0.525 4.403 1.734 6.967 1.194 1.353 3.02 2.011 5.583 2.011 1.831 0 3.989-0.352 6.419-1.044C30.564 47.854 30.84 47.815 31.114 47.815z" fill="#6b7280" data-fill-palette-color="accent"></path><path d="M89.649 68.749c-5.706 0-10.35-4.466-10.35-9.953 0-5.489 4.644-9.954 10.35-9.954 5.707 0 10.351 4.465 10.351 9.954C100 64.283 95.356 68.749 89.649 68.749zM89.649 54.824c-2.408 0-4.367 1.781-4.367 3.972 0 2.189 1.959 3.971 4.367 3.971 2.409 0 4.368-1.781 4.368-3.971C94.018 56.605 92.059 54.824 89.649 54.824z" fill="#6b7280" data-fill-palette-color="accent"></path><polygon points="31.483,41.556 20.882,30.951 31.365,19.543 34.302,22.242 26.404,30.835 34.304,38.736 " fill="#6b7280" data-fill-palette-color="accent"></polygon><polygon points="55.096,41.556 52.276,38.736 60.177,30.835 52.278,22.242 55.215,19.543 65.699,30.951 " fill="#6b7280" data-fill-palette-color="accent"></polygon><rect x="40.676" y="19.526" transform="matrix(0.9068 0.4215 -0.4215 0.9068 16.8501 -15.1379)" width="3.988" height="22.046" fill="#6b7280" data-fill-palette-color="accent"></rect></svg></g></svg></g><g></g></svg></g></svg></g></svg></g></svg></g><defs></defs></svg><rect width="320" height="360" fill="none" stroke="none" visibility="hidden"></rect></g></svg></g></svg>