<?xml version="1.0" encoding="UTF-8"?>
<svg enable-background="new 0 0 134.1 164.772" viewBox="0 0 134.1 164.772" xmlns="http://www.w3.org/2000/svg">
 <path d="m24.03,2.682c13.788-1.656 26.928-2.592 39.96-2.664 12.996-.108 25.344.504 37.619,1.98l-.215,14.76c6.732,2.34 12.564,5.256 17.496,8.748s8.82,7.344 11.951,11.952c2.412,32.58 3.492,56.304 3.24,72.72-.252,16.201-1.836,24.084-4.752,24.193-4.535,7.883-11.592,14.146-21.168,19.332-9.648,5.074-21.672,8.711-36.359,11.051-16.957-5.939-31.176-12.492-43.236-20.232-12.024-7.74-21.492-16.234-28.548-25.775 .036-2.268.288-9.035.612-20.988 .288-11.989.792-28.441 1.368-50.185 .972-2.844 3.42-6.372 7.344-10.584 3.888-4.284 9.216-9.144 16.128-14.724-1.332-2.664-2.052-5.436-2.304-8.748-.288-3.312.001-6.876.864-10.836z" fill-rule="evenodd" stroke="#000" stroke-miterlimit="10" stroke-width=".036"/>
 <path d="m26.37,5.238c9.18-1.116 17.496-1.98 25.776-2.304 8.064-.396 15.084-.252 23.004,0 7.848.18 15.84.396 24.12.936l-1.115,13.788c-11.988,1.116-23.652,2.088-35.424,2.772-11.88.648-23.256,1.152-34.956,1.368-1.26-2.844-2.16-5.472-2.304-8.28-.325-2.844.107-5.472.899-8.28z" fill="#80c2ff" fill-rule="evenodd" stroke="#000" stroke-miterlimit="10" stroke-width=".036"/>
 <path d="m27.306,25.038c5.616-.576 13.824-1.188 25.308-1.836 11.448-.72 25.487-1.44 42.804-2.304-7.164,8.028-12.707,15.336-17.027,22.068-4.393,6.66-7.164,12.6-8.748,17.964-11.556,1.908-22.572,2.196-33.588.468-11.088-1.728-21.6-5.256-32.22-10.584 3.132-5.256 6.66-9.972 10.584-14.292 3.887-4.32 8.135-8.1 12.887-11.484z" fill="#80c2ff" fill-rule="evenodd" stroke="#000" stroke-miterlimit="10" stroke-width=".036"/>
 <path d="m72.414,61.83c.432-3.6 2.881-8.712 7.344-15.624 4.428-6.984 10.873-15.48 19.332-25.776 5.725,1.944 11.088,4.356 16.092,7.38 4.969,2.952 9.576,6.48 13.824,10.584-13.752,5.328-24.984,9.828-34.523,13.788-9.469,3.888-16.776,7.056-22.069,9.648z" fill="#80c2ff" fill-rule="evenodd" stroke="#000" stroke-miterlimit="10" stroke-width=".036"/>
 <path d="m73.314,65.07c-.541,27.145-.648,48.348-.469,64.439 .18,15.984.721,26.244 1.621,31.213 9.576-1.764 18.504-4.932 27.611-9.648 9-4.787 17.604-10.729 26.209-18.396 2.123-2.592 3.131-11.34 3.023-26.639-.107-15.445-1.332-36.757-3.672-64.909-10.008,4.608-19.477,8.856-28.549,12.888-9.213,3.996-17.529,7.632-25.774,11.052z" fill="#80c2ff" fill-rule="evenodd" stroke="#000" stroke-miterlimit="10" stroke-width=".036"/>
 <path d="m3.366,53.55c3.96,5.4 11.196,9.036 22.104,11.052 10.908,1.98 24.948,2.34 42.804.936-.036,24.659.36,44.532.9,60.731 .541,16.164 1.369,27.686 2.484,35.389-11.736-3.564-23.148-8.748-34.524-16.092-11.448-7.453-22.464-16.381-33.588-27.611-.54-11.809-.648-22.717-.72-33.553-.072-10.908.108-20.916.54-30.852z" fill="#80c2ff" fill-rule="evenodd" stroke="#000" stroke-miterlimit="10" stroke-width=".036"/>
 <path d="m24.138,115.471-.072-.037-.036-.035-.072-.037v-.035l-.072-.035-.036-.072-.072-.072v-.037l-.036-.035v-.072l-.072-.072-.072-.072v-.035l-.036-.072v-.035l-.072-.145v-.037l-.072-.07v-.072l-.036-.072v-.107l-.072-.072v-.072l-.072-.107v-.109l-.036-.107v-.035l-.072-.145v-.109-.07l-.036-.145-.036-.072v-.072l-.036-.18v-.072l-.072-.107v-.145-.107l-.072-.145v-.107-.145l-.036-.145v-.143l-.036-.109-.036-.18v-.107-.145l-.072-.18v-.145-.107l-.072-.217v-.18-.107l-.072-.217v-.143-.182-.18l-.036-.18v-.18l-.036-.217-.036-.18v-.143-.182-.107l-.036-.145-.036-.18v-.145-.107-.18l-.072-.145v-.143-.182-.107-.145l-.072-.18v-.145-.107-.18l-.072-.145v-.143-.145-.145l-.072-.145v-.18-.143-.109-.18l-.036-.145v-.143l-.036-.145v-.145l-.036-.145v-.18l-.036-.252-.036-.324v-.287l-.072-.359-.072-.361v-.395l-.072-.396v-.432l-.072-.434-.072-.504v-.467l-.072-.469-.036-.539-.072-.576-.036-.541-.036-.576-.072-.611-.072-.684-.072-.613-.072-.684-.072-.648v-.719l-.072-.684-.072-.793-.072-.721-.072-.791-.072-.828-.072-.791-.072-.828-.072-.865-.072-.9-.072-.898-.108.467-.036.469-.036.432-.072.504-.108.432-.036.432-.072.506-.036.471-.036.432-.108.432-.072.506-.036.432-.036.467-.108.434-.072.432-.036.467-.036.504-.108.396-.072.469-.036.467-.072.469-.108.396-.036.467-.036.469-.072.432-.072.469-.072.467-.036.434-.072.432-.108.467-.036.434-.036.432v.18l-.072.107v.145l-.036.145v.18 .107l-.036.145v.145 .143l-.072.145v.145 .143l-.036.109v.18l-.072.107v.145 .18l-.036.072v.18 .145l-.036.107v.18 .145l-.072.107v.145l-.036.145v.107 .18l-.072.145 .036.145v.143l-.072.109v.18l-.036.18v.145l-.072.143v.182l-.036.107v.18 .145l-.072.143 .036.182-.072.107v.18l-.036.145v.107l-.072.145v.145l-.036.107v.145l-.072.107v.107l.036.18-.072.072v.145l-.072.107 .036.145-.072.072v.143l-.072.072 .036.145-.072.037v.107l-.036.107v.107l-.072.109v.107l-.036.107-.072.037v.107l-.036.072v.072l-.072.072-.036.07v.072l-.072.072-.036.037v.035l-.072.037-.072.035 .036.072h-.072-.072l.036.072-.072.035h-.072l-.036-.035v.035h-.072l-.036.037-.072-.037-.072-.035h-.036l-.072-.037-.036-.035-.072-.037h-.036l-.072-.035-.072-.072-.036-.072-.072-.035v-.037l-.036-.107h-.072v-.072l-.072-.035-.036-.072v-.072l-.072-.107v-.037l-.072-.072v-.07l-.036-.072-.072-.109v-.07l-.072-.072v-.109l-.036-.107v-.072l-.072-.107v-.107-.109l-.072-.107v-.107l-.036-.109v-.107-.072l-.072-.072v-.07-.072-.072l-.072-.107v-.072-.072-.072l-.072-.107v-.072-.109-.07-.072l-.036-.109v-.07-.072l-.036-.109-.036-.107v-.107-.072-.072l-.072-.145v-.072-.107-.072l-.072-.107v-.145-.072-.107-.072l-.072-.107v-.145-.072-.07-.072-.109l-.072-.107v-.107-.072-.072-.107l-.036-.109v-.107-.072l-.036-.072v-.107-.072l-.036-.107v-.107-.072-.107-.072-.072l-.072-.109v-.107-.107-.072-.072l-.072-.107v-.107-.109-.072l-.072-.574-.108-.576-.072-.576-.072-.576-.072-.613-.072-.574-.144-.613-.036-.576-.072-.576-.072-.611-.072-.576-.072-.611-.144-.613-.072-.611-.072-.611-.036-.576-.072-.613-.072-.611-.072-.617-.072-.611-.072-.613-.072-.611-.072-.611-.072-.613-.072-.611-.072-.611-.072-.648-.072-.611-.072-.613-.072-.648-.072-.611-.072-.648-.036.144v.108 .144 .108 .18l-.036.072v.18 .108 .145l-.072.107 .036.145v.143 .145l-.072.107v.145 .107 .18 .109l-.036.072v.18 .145 .107l-.036.107v.145 .107 .18l-.072.072v.18l.036.109v.143 .145l-.072.107v.396l-.036.359-.036.396-.072.393-.036.359v.396l-.036.359-.072.396-.036.359-.036.361v.395l-.036.361-.072.396-.036.395-.036.361v.359l-.072.396-.036.359-.036.359-.072.361 .036.395-.072.396-.036.359-.036.366-.072.359 .036.432-.072.361-.036.36-.036.359-.072.361v.432l-.036.359v.107 .145l-.036.145v.145 .143 .18 .182 .143l-.036.142v.18 .18 .217l-.072.145 .036.215v.18l-.072.182 .036.18v.215 .217l-.072.18v.252l-.036.18v.252 .217l-.036.18v.289l-.072.215 .036.252v.252l-.072.217 .036.287-.072.217v.107l-.036.107v.109l-.072.035v.107 .145l-.036.037v.07l-.072.072v.072l-.036.072-.072.037v.07h-.036v.072l-.072.072h-.036v.072h-.072v.035h-.036-.072-.036v.072h-.072l-.036-.035h-.072-.072l-.036-.037-.072-.035-.036-.035h-.072l-.072-.037-.036-.035v-.037l-.072-.035-.036-.072-.072-.035v-.037l-.072-.072-.036-.072-.072-.072v-.035l-.072-.072-.036-.072v-.035l-.072-.072v-.035-.037l-.036-.072v-.035l-.072-.072v-.072-.035l-.072-.072v-.037-.072l-.036-.07v-.037-.035l-.072-.109v-.07-.109-.035l-.072-.072v-.072-.035-.072-.037l-.072-.107v-.035-.037-.072-.035-.072-.072l-.036-.072-.036-.072v-.035-.072-.072-.072-.07-.037-.072-.072-.035-.252-.289-.215-.252l-.036-.289v-.252l.036-.252v-.252-.252-.324l.036-.215v-.289-.299l.036-.252v-.324-.289l.036-.287v-.288l.072-.289-.036-.287 .072-.324v-.289l.036-.324 .036-.287v-.324l.036-.324 .072-.287v-.361l.036-.322 .036-.289 .072-.359 .036-.324v-.289l.036-.287 .072-.252v-.287l.036-.289 .036-.287v-.289l.072-.252 .036-.287v-.289l.036-.287 .072-.252-.036-.289 .072-.252 .036-.287v-.324l.036-.287 .072-.217v-.324l.036-.287 .036-.289v-.287l.072-.289 .036-.252v-.287l.036-.289 .072-.287 .036-.289v-.252l.036-.287 .072-.289-.036-.287 .072-.217v-.252-.215l.036-.217v-.215-.217l.036-.216v-.252l.072-.18v-.252l-.036-.219 .072-.216v-.216l-.036-.288 .072-.216v-.216-.216l.036-.216v-.252l.036-.18v-.252-.216l.072-.216-.036-.252v-.216l.072-.216v-.216l.036-.216v-.252-.216l.036-.252v-.216l.072-.288-.036-.325 .072-.288-.036-.324 .072-.288v-.288l.036-.252v-.288l.072-.252-.036-.252 .072-.252 .036-.216v-.288l.072-.216-.036-.216 .072-.18v-.215l.036-.18 .072-.18v-.216l.036-.144v-.216l.072-.144-.036-.18 .072-.144 .036-.108v-.144l.072-.144v-.108l.036-.108 .072-.108v-.108l.036-.072v-.072l.072-.036v-.108l.036-.036v-.072l.072-.072v-.036l.036-.072 .072-.072v-.036h.072l-.036-.108h.072v-.036l.072-.036 .036-.036v-.036h.072l.036-.036v-.036l.072-.036h.072l.036-.036 .072.036 .036-.036h.072l.072.036h.036l.072.036h.036l.072.072h.072l.036.072 .072.036 .036.036 .036.036 .036.036 .072.072v.036l.036.108v.036l.072.036 .072.108v.036l.036.108 .036.072 .036.036v.108l.072.072v.108l.072.108v.072l.036.108v.108l.072.108v.108l.072.144v.072l.036.18 .036.144 .036.18v.18 .18l.072.18v.18l.072.216v.252l.072.216v.252l.072.252v.216l.072.288v.252l.036.288 .036.288 .036.324 .072.324v.288l.072.36v.36l.072.324v.36l.072.36v.36l.072.396v.396l.072.396 .072.432v.432l.072.432v.504l.072.54 .072.54 .072.54v.504l.072.541 .072.576 .072.504 .072.539v.576l.072.539 .072.541 .072.576 .072.576 .072.576 .072.576 .072.576 .036.574 .072.541 .072.611 .144.613 .072.611 .072.576 .036.611 .072.576 .144.648 .072.611 .072.576 .072.648 .108.648 .072.611 .108.648 .072-.576 .108-.576 .108-.539 .072-.541 .108-.576 .036-.576 .108-.539 .108-.576 .072-.613 .072-.539 .108-.576 .072-.576 .072-.611 .108-.576 .072-.611 .108-.576 .036-.613 .108-.576 .072-.611 .072-.576 .108-.611 .036-.648 .108-.611 .036-.576 .108-.613 .036-.646 .072-.613 .072-.647 .072-.612 .108-.648 .036-.612 .036-.648v-.072l.072-.108v-.144-.108l-.036-.108v-.144l.072-.108v-.072-.108-.144-.108-.144l.036-.108v-.108-.072-.144-.109l.072-.108-.036-.144v-.108-.072-.144l.072-.108v-.108-.144-.108-.144l.036-.036v-.144-.108-.144-.108-.144l.036-.072v-.18-.108-.144l.072-.108v-.108-.144-.144l.036-.108v-.144-.072-.108l.036-.108v-.144-.108-.144l.072-.072v-.108-.108l.036-.072v-.144-.072l.072-.108v-.072-.108l.036-.108v-.072-.072l.072-.072v-.072l.036-.072v-.144l.072-.108v-.072l.036-.108v-.072l.072-.108v-.108l.036-.036v-.108l.072-.072v-.072l.036-.072 .072-.072v-.072l.036-.036 .072-.036v-.072l.072-.036h.036v-.072l.072-.036 .036-.036 .072.036v-.072h.036 .072l.072-.036h.036 .072l.036.036h.072 .072l.036.036 .072.036 .072.072 .036.072 .072.036 .036.072 .072.072 .072.072 .036.108v.072l.072.108 .072.144 .036.144 .072.144 .072.144v.144l.072.108 .036.216 .072.18 .072.18v.18l.036.216 .072.216v.216l.072.216 .072.252v.252l.036.216v.252l.072.288 .072.288v.108 .072 .144 .072l.072.144v.108 .144 .18 .108l.072.18v.18 .144 .144l.072.252v.144 .216 .18 .216l.072.216v.216 .216l.072.288v.18 .288 .252l.036.252 .036.252v.252 .252l.072.324v.288 .252l.072.792 .072.756 .072.719v.721l.072.756 .072.721 .072.719 .072.721v.684l.072.686 .072.719 .072.684 .072.686 .036.684 .072.684 .036.611 .036.686 .072.611 .072.648 .072.646 .072.613 .072.684 .072.576 .072.611 .036.613 .072.574 .072.613 .072.576 .072.576 .036.576 .072.611 .144.539v.145 .18 .109l.072.18v.18 .107l.036.18v.145 .145 .107l.072.217v.107 .145l.072.215v.109 .143 .18l.072.145v.145 .145l.036.18v.107l.036.18 .036.18v.109 .18 .107l.072.18v.18 .109l.072.18v.145 .215l.072.252v.217l.036.252 .036.217 .036.252v.18 .143l.072.252v.182 .18l.072.18v.18 .145 .18l.072.145v.143 .182 .107 .072l.072.18v.145 .072 .143 .072 .072 .107 .072 .072l.072.107v.072 .037 .107 .072h-.072v.107 .072 .035 .109 .072 .035 .107 .037 .072l-.036.035v.072 .035 .037 .107 .035h-.072v.109 .035 .037l-.036.07v.037 .035l-.072.037v.072 .035h-.036v.037l-.072.07v.037 .035l-.036.037v.035 .037h-.072v.035l-.036.035h-.072v.037 .035l-.036-.035v.072h-.072-.072l-.036.035v.037l-.072-.037v.037l-.036-.037h-.072l-.072-.035h-.036l-.072-.037-.036-.035zm12.456-30.996h-.036l-.072-.037-.072-.035h-.036l-.072-.072h-.072l-.036-.035-.072-.037h-.036l-.072-.035v-.037h-.072l-.036-.037h-.072l-.036-.072-.072-.035h-.072l-.036-.072h-.072l-.108-.072-.072-.037-.036-.035-.072-.072h-.036l-.072-.035-.072-.037-.036-.035-.072-.072-.108-.037-.072-.07h-.036l-.072-.072-.072-.037h-.036l-.072-.071h-.072l-.036-.072-.072-.036h-.036l-.072-.072-.072-.035h-.036l-.072-.072h-.036l-.072-.072-.036-.036h-.072l-.072-.072-.036-.036-.072-.036-.072-.04h-.036l-.072-.072-.036-.036-.072-.036-.072-.036h-.036l-.072-.072-.072-.036-.036-.036-.072-.036h-.036l-.072-.072v.504l-.036.503v.504 .504 .504l-.036.469v.504 .504 .504 .504l-.036.469v.504 .504l.036.504v.504 .432 .504l-.072.504 .036.504v.434 .504 .467 .469 .504l.036.469v.504 .467 .432 .504l-.036.434v.504 .467 .109 .107 .145 .107 .145 .107l.072.145v.143 .145 .145 .107 .145 .18 .145 .143 .145 .18 .109l.036.18v.143 .182 .143 .18 .145 .18 .182 .18 .18 .145 .18 .18 .18 .18 .18 .182 .18 .18l.072.215v.182 .143 .18 .182 .143 .182 .143l.036.18v.145 .107 .182 .143 .145 .145 .107 .18 .145 .145 .107 .107 .145 .145 .143 .145 .072 .145 .18 .145l.036.18v.145 .18 .18 .107 .217 .107 .18 .145 .145 .18 .145 .18 .143 .109 .18 .145 .143l-.036.109v.18 .143 .145 .107 .145 .145 .145 .143 .109 .143l-.036.109 .108.072 .108.035 .108.072 .144.072 .108.035 .108.072 .108.072 .108.035 .108.072 .144.072h.108l.108.072 .108.035 .108.072 .108.072 .144.037 .108.07 .108.072 .108.037 .108.072 .144.07 .108.037h.108l.108.072 .108.072 .108.035 .072.037 .108.07 .108.072 .144.037 .108.072 .108.035 .036.035 .072.037 .072.035 .036.072 .072.037v.035l.072.035v.037l.036.035v.037l.072.035v.072l.036.072v.035l.072.072v.037l.072.107 .036.072v.035 .037l.072.072v.07 .037l.036.107v.072 .037l.072.07v.037 .072l.072.072v.07 .072 .037l.036.072v.107 .035 .037l.072.107v.072 .035 .109 .035l.072.072v.107 .037 .107 .035 .109 .035 .107l.072.072v.109 .07 .037 .107 .037 .107 .107 .072 .035 .109 .107 .037l-.072.07v.072 .072 .072 .035 .109 .035 .107h-.036v.109 .035 .107 .037l-.072.035v.072 .037 .07l-.036.072v.037 .035 .072h-.072v.037 .107h-.036v.072 .035h-.072v.072 .035h-.036v.037 .072h-.072v.072h-.036v.035l-.072-.035v.07 .037l-.072-.037v.037l-.036.035h-.072v.072l-.036-.035h-.072l-.072-.037-.036-.035v.072l-.072-.037-.036-.035-.072-.037-.036-.035-.072-.035-.072-.037-.036-.035h-.072l-.036-.037-.072-.035-.072-.037-.036-.035-.072-.035-.036-.037-.072-.035-.072-.037h-.036l-.072-.035-.036-.037-.072-.035-.036-.035-.072-.037-.108-.072-.072-.035h-.036l-.072-.037-.108-.035-.072-.037-.036-.035-.144-.035-.036-.037-.072-.035-.108-.072-.072-.037-.036-.035-.108-.035h-.072l-.036-.037-.072-.035-.108-.037-.072-.035-.036-.037-.072-.035-.036-.035-.072-.037-.108-.072-.072-.035h-.072l-.036-.037-.072-.035-.036-.037-.072-.035-.036-.035-.072-.037-.072-.035h-.036l-.072-.037-.036-.035-.072-.037-.072-.035-.036-.035-.072-.037-.036-.035-.072-.037h-.072-.036l-.072-.035-.036-.037-.072-.035-.036-.035-.072.035-.072-.035-.036-.037h-.072l-.036-.035-.144-.037h-.036l-.072-.035h-.036l-.108-.037h-.072l-.072-.035h-.108l-.036-.037h-.072l-.108-.07-.072.035-.108-.035-.036-.037h-.144-.036l-.108-.072-.072.037-.108-.037-.108-.072-.072.037-.108-.037-.072-.035h-.108l-.036-.035-.108-.037-.072-.035h-.108l-.072-.037h-.036l-.144-.035h-.036l-.072-.037-.108-.035-.036-.035h-.072l-.072-.037h-.036l-.072-.035-.108-.072-.072-.037-.036.037-.072-.037-.036-.035-.072-.037-.036-.035-.072-.035-.072-.037-.036-.035h-.072l-.036-.037-.072-.035-.072-.072-.036-.035v-.037l-.072-.035v-.072h-.036v-.072h-.072v-.072l-.072-.035v-.037-.035l-.036-.037v-.035l-.072-.072v-.035-.072l-.072-.072-.036-.072v-.035-.037l-.072-.072v-.072-.072l-.036-.07v-.037l-.036-.107-.036-.072v-.035-.109-.035l-.072-.072v-.072-.072-.072l-.036-.07v-.037-.107-.037l-.036-.072-.036-.107v-.072-.035-.107-.037-.072-.072-.07-.072l-.072-.072v-.107-.037-.072-.107-.035-.072-.109-.035-.107-.037l.036-.035v-.072-.072-.035-.109-.035-.072-.072-.072h.072v-.035-.107-.037-.035l.036-.072v-.037-.035-.107h.072v-.037-.072-.072h.036v-.07-.037h.072v-.107-.037h.036v-.035-.072h.072v-.035l.036-.037v-.035-.037h.072l.036-.035v-.037-.035h.072v-.035l.072.035v-.035l.036.035v-.035h.072v-.037l.036.037v-.037l.072.037h.036l.072.035v-.035l.072.035 .036.035 .072.037h.036l.072.035 .072.037 .036.035 .072.037h.108l.036.035 .072.037 .072.035 .036-.035 .108.07 .072.037 .072-.037 .036.037 .108.072h.072l.108.035h.072l.108.072 .036-.035 .144.035h.036l.108.035h.144l.036.037h.108l.144.035 .108.072 .036-.035 .072-.109v-.18-.143-.109-.143-.145-.18l-.036-.109v-.143l.072-.145v-.145-.18-.145-.18-.107-.18l-.036-.18v-.145-.18-.18-.145-.18-.182-.18-.107-.217-.143-.18-.182-.18-.145-.18-.143-.145-.107l-.036-.145v-.072-.145-.143-.145-.107-.145-.145-.145-.18-.107-.145-.145-.18-.107-.145-.18-.145-.143-.18l-.036-.182v-.107-.18-.145l-.036-.215v-.198l-.036-.18v-.18-.107-.18-.182-.18-.143-.182-.18-.143-.182-.143-.145l-.072-.18v-.18-.145-.18-.109-.143-.18-.145-.101-.145-.145-.145-.107-.145-.143-.145l-.036-.107v-.145-.107-.109-.143-.072-.432-.434-.395-.434l-.036-.432v-.396-.467-.432-.43l.036-.467v-.469-.504-.432-.504l-.036-.469v-.504l.072-.467v-.541l-.036-.504v-.539-.541l.072-.504-.036-.539v-.541-.539l.036-.541v-.539-.576l.036-.576v-.576-.612l.036-.576-.036-.036h-.072l-.072-.036-.036-.036v.072l-.072-.036h-.036l-.072-.036h-.072l-.036-.036h-.072l-.036-.036h-.072l-.072-.036-.036.036-.072-.036h-.036l-.072-.036h-.072l-.036-.036h-.072l-.036-.036h-.072l-.072-.036h-.036-.072-.036l-.072-.036h-.072l-.036-.036h-.072l-.036-.036h-.072l-.072-.036h-.036l-.072-.036h-.036l-.072-.036h-.072l-.036-.036h-.072l-.072-.036h-.036l-.072-.036v.036h-.036l-.072-.036h-.072l-.036-.036h-.072l-.036-.036h-.072l-.072-.036h-.036l-.072-.036h-.036l-.072-.036v-.036h-.072l-.036-.036v-.036l-.072-.036-.036-.036-.072-.072v-.036l-.072-.036v-.036l-.036-.072-.072-.072v-.036-.036l-.072-.072v-.036h-.036v-.072-.036l-.072-.108v-.036-.036l-.072-.072v-.036-.036l-.036-.072v-.036-.108l-.072-.036v-.072-.036-.072l-.072-.072v-.036-.108-.036-.036l-.036-.108v-.036-.108-.036-.072-.072l-.072-.072v-.072-.072-.072-.072-.072-.036-.108-.072-.108-.036 .001l-.036-.18v-.107-.18-.144-.144l.072-.108v-.108-.144-.144l.036-.036v-.144-.108l.072-.108v-.072l.036-.072v-.108l.072-.036 .036-.072v-.108l.072-.036 .072-.072h.036v-.072l.072-.072h.036l.072-.036 .072-.036 .036-.036 .072.036 .036-.036 .072.036 .108-.036 .072.036 .036-.036h.072l.072.036h.036l.072-.036 .108.036 .036.036 .144.036 .036-.036 .108.036h.072l.108.036 .144.036h.108l.108.036h.072l.108.036 .108.036 .108.036 .18.036 .108.036h.144l.108.036 .18.036 .108.036 .108.036 .18.036 .18.036 .108.036 .18.072 .108.036 .18.036 .18.036 .108.036 .18.108 .108.036 .18.036 .144.036 .18.108 .144.036 .144.108 .18.036 .18.108 .18.036 .18.108 .18.072 .144.108 .18.108 .18.036 .252.108 .144.108 .18.108 .18.108 .252.108 .144.108 .18.108 .252.144 .18.108 .216.108 .252.144 .144.108 .252.144 .18.144 .036.036 .108.072 .072.072h.072v.036l.036.072 .072.108 .072.072 .036.072 .072.108v.036l.072.108 .036.108 .072.072v.108l.072.108v.144l.036.108v.072l.072.18v.072 .144l.036.18 .036.144v.072l.036.18v.18 .144 .144 .18 .144l.036.18v.108 .036 .072 .108 .108 .036 .108 .036 .108 .072l-.072.036v.072 .072 .072 .072l-.036.071v.037 .035 .108l-.072.036v.035 .109 .035l-.072.035 .036.072v.072l-.072.037v.035 .037l-.072.035v.035l-.036.072v.072h-.072v.072 .035l-.036.037h-.072v.072 .035h-.036v.037l-.072-.037v.072h-.072l-.036.035-.072.037h-.072l.036.035-.072-.035h-.072v.035h-.036l-.072-.029zm13.752,42.084-.072.072-.108.035-.072.072-.108.035-.108.037-.036.072-.144.035-.108.037-.108.035-.036.072-.144.035-.108.037-.108.035-.108-.035h-.18l-.108.035-.108.037-.108.035-.18.037h-.108-.108-.18l-.108.035h-.18-.18-.108-.18-.144-.18l-.18-.035-.108.035h-.18l-.18-.035h-.144l-.18-.072h-.108-.18l-.108-.037-.18-.035-.18-.037-.108-.035h-.108l-.18-.072h-.108l-.18-.072h-.108-.108l-.18-.072-.108-.072h-.108-.108l-.108-.07-.144-.037-.108-.072-.18-.035-.108-.072h-.108l-.036-.035-.144-.072-.108-.072-.108-.072h-.108l-.108-.072-.072-.035-.108-.072-.072-.037-.036-.072-.072-.035-.036-.035-.144-.072h-.036l-.072-.109-.036-.035-.072-.035-.072-.072-.036-.037-.072-.072-.036-.035-.072-.072-.072-.035v-.037l-.036-.035-.072-.109-.036-.07-.072-.072-.072-.037v-.035l-.036-.072-.072-.107-.036-.072v-.037l-.072-.107v-.035l-.072-.072-.036-.072v-.072l-.072-.107-.036-.145-.036-.072-.036-.145-.072-.107v-.107l-.036-.145v-.072l-.072-.18v-.107l-.072-.18v-.145l-.036-.107v-.145l-.072-.18v-.145-.145l-.072-.18v-.145-.18l-.036-.18v-.18-.145-.18-.18l-.072-.18v-.217-.18-.18-.18-.217-.217-.287l-.036-.287v-.324-.289l.072-.324v-.287-.324-.287l-.036-.289v-.324-.287-.324l.072-.252v-.289-.322-.289-.324l-.036-.287v-.361l.072-.252v-.287-.324-.287-.324l-.036-.289v-.287-.324l.072-.252v-.324-.287-.361-.287l-.036-.828 .072-.828-.036-.863v-.865-.863l.036-.828v-.9-.863-.9l.036-.863v-.9-.9l-.036-.9v-.971l.072-.865-.036-.973v-.898-.938-.971l-.036-.936v-.973-.973-.971l.036-.973v-.973-.971l-.036-1.01v-1.008-1.007-1.044l-.036-1.008v-1.052-.036-.108-.072-.072-.072-.036-.108-.108-.036-.108l.072-.036-.036-.072v-.072-.036-.108-.036l.072-.072v-.036-.072-.072-.072l.036-.036v-.036-.108-.036l.072-.036v-.036-.108l.072-.036v-.036-.036l.036-.036v-.036-.072l.072-.036v-.036-.036l.036-.036v-.072h.072v-.072-.036l.072-.036v-.036h.036v-.036-.036h.072v-.036h.036v-.036h.072v-.036h.072v-.036h.036 .072 .036 .072l.072.036h.036l.072.036v.036h.036l.072.036v.036l.072.036v.036h.036v.072h.072v.072h.036l.036.036v.072h.036v.036l.072.072v.072l.036.036v.072 .036l.072.072v.036 .036l.072.072v.036l.036.072v.072 .036l.072.072v.036 .108 .036l.072.072v.036 .108 .036l.036.072v.036 .108 .036l.072.072v.108 .036 .108 .036 .072 .072l.072.072v.108 .036 .108 .072 .072 .108 .036 .108 .072 .072 1.044 1.08l.036,1.008v1.043 1.01 1.043 1.008l.036,1.008v1.008 1.008 .973l-.036.973v.971 .973l.036.973v.971 .973 .936l-.036.9v.973 .9 .936l.036.9-.072.898 .036.938v.898l-.072.865 .036.9v.863 .863l-.036.9v.865 .107 .145 .143 .145 .145l-.072.107v.145 .143 .145 .145l.036.145v.143 .145 .145 .107 .145 .145 .143l-.072.109v.143 .145 .145 .143 .145 .145 .145l.036.143v.145 .145 .107 .145 .145l-.072.143v.145 .145 .143 .145 .145 .145 .143 .145 .145 .145l-.036.143v.145 .145 .143 .145 .145 .145 .07 .145 .145 .145 .107 .145 .143 .109 .143 .072 .145 .145 .107 .145l.252.107 .18.107 .144.037 .252.143 .18.037 .216.072 .18.107 .216.072h.216l.18.072h.216l.252.072 .216.035 .216.037h.252l.216.035 .216-.035 .252-.037 .216.037h.288l.216-.037 .252-.072h.288l.216-.035 .288-.037 .216-.07 .288-.072 .288-.037 .288-.107 .216-.072 .288-.107 .288-.072v-.037l.072.037 .036.035v-.072l.072.037 .072.035v-.035h.036l.072.035 .036.037 .072.035 .036.037v.035l.072.035 .072.072 .036.037v.035l.072.037v.035l.036.107v.037l.072.035v.037l.072.072v.07 .037l.036.035v.072l.072.072v.035l.036.072v.109 .072l.072.07v.037 .072l.072.107v.072 .035l.036.072v.072 .107l.072.072v.037 .07 .109 .035l.072.072v.072 .072 .072 .035l.036.145v.035 .072 .107 .037 .107 .037 .07 .072 .072l.072.145v.035 .109 .035 .107 .037 .107 .107 .145 .107 .109l-.072.107v.107l.036.109v.107 .072 .107l-.072.072v.107 .107l-.036.072v.109 .072l-.072.07v.109l-.072.035v.107l-.036.072v.037l-.072.072v.035l-.036.072-.072.035v.109h-.036l-.072.035v.107h-.072l-.036.037zm14.184,10.619-.108-.072-.108-.107-.144-.107-.108-.145-.108-.107-.108-.18-.108-.182-.18-.252-.108-.18-.108-.215-.18-.324-.108-.252-.18-.324-.108-.289-.18-.359-.108-.324-.18-.396-.18-.395-.18-.432-.144-.396-.144-.432-.144-.504-.18-.469-.18-.504-.216-.541-.18-.539-.18-.504-.18-.576-.18-.648-.216-.576-.18-.646-.216-.648-.108-.361-.072-.359-.108-.359-.144-.324-.108-.396-.108-.359-.108-.396-.108-.359-.072-.289-.108-.395-.108-.361-.144-.396-.108-.359-.108-.359-.072-.324-.108-.359-.108-.361-.108-.395-.108-.361-.144-.359-.108-.324-.072-.359-.108-.361-.108-.359-.108-.359-.108-.324-.144-.359-.108-.396-.072-.324-.108-.359-.108-.396-.108-.289v.037 .072 .035 .072 .035 .037 .072 .035 .576 .541 .504 .539 .504 .541 .576 .504 .539l.036.504v.541 .574 .541 .504 .539 .506 .539 .576 .504 .539 .504 .541 .504 .576 .539 .504 .541 .504 .576l.036.539v.504 .541 .215 .182 .18 .145 .215l-.072.145v.145 .143 .18l-.036.072v.145 .107l-.072.109v.107l-.036.072v.107l-.072.072v.072l-.072.035-.036.037v.107l-.072.035h-.036l-.072.037h-.036v.072h-.072l-.072-.037-.036-.035-.072.035-.036-.035-.072-.037-.072-.035-.036-.035-.072-.037-.036-.072-.072-.035-.036-.107-.072-.072v-.037l-.072-.035-.036-.107v-.037l-.072-.072v-.072l-.036-.072v-.07l-.072-.072-.072-.072v-.072l-.036-.072v-.107l-.072-.072v-.107l-.072-.072v-.109-.07l-.036-.145v-.072l-.072-.107v-.109l-.036-.107v-.107-.072-.107l-.072-.109v-.07-.109l-.072-.143v-.037-.107-.107l-.036-.109v-.072-.107-.107-.072l-.072-.107v-.109-.107-.072-.072-.107-.107-.109l-.072-.107v-.107-.107-.109-.107-.107-.072-.107-.469-.469-.504-.539-.504-.576-.576-.541-.574-.613-.648-.611l.036-.611v-.686-.684-.646-.758-.719l-.036-.721v-.719-.758-.791l.072-.793v-.756-.828l-.036-.898v-.828-.865-.898l.072-.828v-.938l-.036-.936v-.936-.863-.938l.072-.863-.036-.863v-.828-.828-.828-.828-.756-.793-.756l.036-.756v-.756-.721-.719-.648-.684-.684-.648-.648-.611l-.036-.613v-.576-.574-.541-.576-.539-.504-.504-.469-.469-.136-.107-.037-.107l.072-.035v-.109l-.036-.107v-.035-.109-.074-.107-.035-.109l.072-.035v-.107-.037-.072-.072-.072l.036-.036v-.108-.036-.074l.072-.036v-.108-.036-.036l.072-.036v-.072-.036l.036-.108v-.036-.036l.072-.036v-.072l.072-.036v-.036-.072l.036-.036v-.036-.072l.072-.036v-.036h.036v-.036l.072-.036v-.072l.036-.036 .072-.036 .072.036v-.036h.036v-.072l.072.036h.072l.036-.036 .072.036h.036l.072.036v.036h.072l.036.036 .072.072 .036.072h.072v.072h.072v.072l.036.036v.072l.072.072 .072.072v.036 .072l.036.036v.072l.072.072v.036 .072l.036.072v.036 .072l.072.036v.108 .072l.036.072v.036 .072l.072.036v.109 .071 .036l.072.072v.107 .072 .035 .109l.036.072v.035 .107 .072 .072l.036.072 .036.107v.072 .107 .037 .107 .107 .037 .107 .072 .107 .109 .215 .18 .217 .217 .215 .252 .217 .252 .252 .287 .252l.036.252v.324 .252 .324 .324l-.072.287v.324 .289 .324 .359 .324 .359 .361 .359 .396 .359l.036.359-.072.396v.432 .359 .396 .432 .361 .432 .359l-.036.361v.359 .359 .361 .322 .361 .324 .359 .324 .287 .324l-.072.289v.324 .322l.036.252v.324 .252 .324 .252 .252 .289 .18 .287 .252 .182 .287 .217 .18l.108-.217 .072-.215 .108-.217 .108-.217 .036-.287 .144-.217 .108-.215 .108-.289 .072-.215 .108-.289 .108-.252 .108-.252 .108-.252 .072-.287 .108-.289 .108-.324 .108-.287 .144-.252 .108-.289 .108-.322 .108-.252 .108-.361 .108-.324 .144-.324 .108-.322 .108-.324 .108-.324 .108-.361 .144-.322 .108-.324 .108-.396 .108-.324 .072-.287 .108-.361 .108-.252 .108-.359 .108-.289 .072-.287 .108-.324 .108-.287 .144-.324 .036-.324 .108-.324 .108-.287 .144-.289 .036-.359 .108-.289 .144-.324 .108-.287 .108-.287 .072-.361 .108-.287 .108-.361 .108-.287 .072-.287 .108-.361 .108-.287 .108-.324 .144-.289 .036-.315 .108-.361 .144-.287 .108-.324 .036-.324 .072-.072v-.072l.036-.107v-.035l.072-.037v-.107-.072l.072-.035v-.037l.036-.035v-.072l.072-.037v-.035l.072-.035v-.072l.036-.037v-.077l.072.037v-.072l.036-.037 .072-.035 .072.035v-.07l.036.035h.072 .072l.036.035h.072l.036.037 .072.072h.036l.072.072 .072.072v.07h.036v.072l.072.072 .036.072v.035l.072.072v.072l.072.072v.035l.036.072v.072 .037l.072.072v.07l.072.109v.072 .035l.036.072v.072 .035l.072.072v.107 .072 .037l.036.07v.109 .072l.072.072v.107 .035 .072 .107 .072l.072.109v.035 .107 .072 .107 .072 .109 .035 .107l.036.072v.107 .109 .072 .107 .145l-.036.18v.145 .215l-.072.145v.215l-.036.289-.072.18v.289l-.072.252-.036.287-.108.252-.072.324-.072.287-.108.361-.036.324-.144.335-.108.361-.036.396-.144.395-.108.432-.108.396-.18.361-.108.467-.18.432-.108.469-.18.432-.108.504-.18.504-.144.504-.18.504-.18.541-.18.359-.108.324-.108.396-.108.324-.18.395-.108.324-.108.324-.144.396-.108.324-.18.359-.108.324-.108.396-.108.324-.18.359-.108.324-.108.324-.18.359-.108.324-.108.396-.144.324-.144.322-.108.361-.144.324-.108.324-.18.287-.108.396-.108.324-.18.287-.108.324-.108.324-.18.359-.108.324 .108.289 .072.287 .108.324 .072.287 .108.361 .108.324 .108.359 .144.359 .036.361 .108.359 .18.396 .144.432 .108.359 .108.432 .108.432 .108.434 .18.432 .108.432 .18.469 .108.467 .18.504 .144.432 .144.506 .18.504 .108.504 .18.576 .18.504 .18.576 .18.504 .144.574 .18.576 .18.541 .072.145 .036.143v.072l.072.107v.109l.036.107 .072.145v.072l.072.107 .036.145v.072l.072.143 .036.109v.107l.072.107 .072.107v.109l.036.143v.109l.072.072 .036.143v.109l.072.07 .072.145v.107l.036.072 .072.145v.107l.036.145 .072.072v.107l.072.145 .036.107v.109l.072.107 .036.107v.107l.072.072 .072.145 .036.072v.107l.072.107 .036.109 .072.107v.035l.072.145 .036.109 .072.07 .036.145v.037l.072.107 .072.072 .036.072v.07l.072.145 .036.072 .072.072v.072l.072.072 .036.107 .072.072 .036.035v.037l.072.107 .036.072 .072.072 .072.143 .036.109 .072.072 .072.143v.037l.036.107 .072.145 .036.143v.037l.072.145v.107l.036.072 .072.145v.107l.072.145v.107 .107l.036.145v.107 .18l.072.145v.107 .145 .145l.072.18v.107 .18 .145 .107 .182 .107 .072 .035 .072 .107 .037 .072 .107 .035 .072 .037l-.072.072v.07 .072 .037 .107 .072 .035 .072l-.072.072v.072 .035 .037 .143 .037l-.036.035v.037 .107 .072l-.072.035v.109 .035 .072l-.036.072v.035 .109l-.072.035v.035l-.072.037v.107 .072h-.036v.072l-.072.035v.037l-.036.035v.037l-.072.035v.037l-.036.035-.072.035-.072-.035v.035l-.036-.035-.072.035-.036-.035-.072-.035v.025h.036-.036z" fill-rule="evenodd"/>
</svg>
